<?xml version="1.0" standalone="no"?>
<!DOCTYPE svg PUBLIC "-//W3C//DTD SVG 20010904//EN"
 "http://www.w3.org/TR/2001/REC-SVG-20010904/DTD/svg10.dtd">
<svg version="1.0" xmlns="http://www.w3.org/2000/svg"
 width="700.000000pt" height="700.000000pt" viewBox="0 0 700.000000 700.000000"
 preserveAspectRatio="xMidYMid meet">
<metadata>
Created by potrace 1.11, written by Peter Selinger 2001-2013
</metadata>
<g transform="translate(0.000000,700.000000) scale(0.100000,-0.100000)"
fill="#000000" stroke="none">
<path d="M3378 6545 c-2 -2 -21 -5 -43 -8 -89 -13 -119 -19 -193 -42 -133 -40
-191 -65 -308 -133 -111 -64 -268 -202 -344 -302 -19 -25 -37 -47 -40 -50 -40
-38 -190 -334 -190 -376 0 -8 -13 -9 -46 -3 -25 5 -49 11 -53 13 -4 3 -30 8
-57 12 -27 3 -58 8 -69 11 -28 6 -232 5 -264 -1 -14 -3 -44 -8 -66 -11 -70
-10 -187 -46 -270 -83 -269 -121 -493 -351 -604 -621 -56 -135 -84 -265 -89
-418 -1 -24 -5 -42 -9 -41 -18 4 -119 -24 -184 -52 -212 -90 -387 -268 -472
-480 -74 -187 -82 -411 -21 -598 93 -286 315 -488 607 -554 89 -20 122 -20
1000 -21 499 -1 907 -4 907 -7 0 -3 -9 -17 -20 -30 -11 -14 -76 -104 -144
-200 -69 -96 -130 -181 -136 -187 -6 -7 -20 -29 -31 -48 -20 -33 -20 -37 -5
-60 21 -32 33 -32 261 0 99 14 198 28 220 30 22 3 58 8 80 11 22 3 51 7 65 9
14 2 63 9 110 15 47 6 96 13 110 15 62 11 140 17 140 10 0 -4 -38 -80 -84
-169 -46 -88 -114 -219 -151 -291 -37 -71 -106 -204 -153 -295 -126 -241 -230
-443 -324 -628 -81 -158 -83 -163 -68 -190 13 -21 24 -28 56 -30 44 -3 52 4
196 178 75 92 452 547 489 590 20 25 120 144 220 265 100 121 199 240 220 265
21 25 131 158 245 295 114 138 245 295 291 350 l84 100 1047 1 c1182 2 1132
-1 1297 79 205 99 352 298 393 530 11 62 7 192 -7 263 -41 206 -190 394 -387
491 -131 64 -274 89 -412 71 -34 -4 -52 -3 -53 4 0 6 -2 36 -4 67 -15 235
-117 467 -281 636 -56 57 -162 143 -213 171 -71 41 -92 51 -151 74 -74 29
-172 55 -245 63 -68 8 -202 8 -245 1 -19 -3 -63 -11 -98 -17 -35 -6 -64 -10
-66 -8 -2 2 -6 49 -9 104 -7 131 -21 206 -59 324 -79 248 -233 471 -428 621
-25 19 -47 38 -50 41 -23 29 -244 144 -330 172 -68 22 -162 49 -190 53 -14 2
-41 7 -60 10 -34 7 -306 14 -312 9z"/>
</g>
</svg>
